<svg width="18" height="10" viewBox="0 0 18 10" version="1.1" xmlns="http://www.w3.org/2000/svg" xmlns:xlink="http://www.w3.org/1999/xlink">
<title>Arrow Copy 17</title>
<desc>Created using Figma</desc>
<g id="Canvas" transform="translate(-616 -2396)">
<g id="Arrow Copy 17">
<use xlink:href="#path0_fill" transform="matrix(-7.06516e-17 -1 -1 5.30688e-17 634 2405.01)" fill="#03AEFD"/>
</g>
</g>
<defs>
<path id="path0_fill" fill-rule="evenodd" d="M 0.25997 9.70746C -0.0866568 9.29817 -0.0866568 8.63466 0.25997 8.22537L 7.09169 0.153484C 7.26478 -0.0511613 7.54583 -0.0511613 7.71892 0.153484L 8.34615 0.894532C 8.51925 1.09918 8.51925 1.43093 8.34615 1.63558L 2.45483 8.59563C 2.28174 8.80027 2.28174 9.13256 2.45483 9.33667L 8.34615 16.2972C 8.51925 16.5019 8.51925 16.8337 8.34615 17.0383L 7.71892 17.7793C 7.54583 17.984 7.26478 17.984 7.09169 17.7793L 0.25997 9.70746Z"/>
</defs>
</svg>
